<?xml version="1.0" encoding="iso-8859-1"?>
<!-- Generator: Adobe Illustrator 19.0.0, SVG Export Plug-In . SVG Version: 6.00 Build 0)  -->
<svg version="1.1" id="Layer_1" xmlns="http://www.w3.org/2000/svg" xmlns:xlink="http://www.w3.org/1999/xlink" x="0px" y="0px"
	 viewBox="0 0 218.206 218.206" style="enable-background:new 0 0 218.206 218.206;" xml:space="preserve">
<g>
	<g>
		<g>
			<path d="M214.31,105.207c-2.152,0-3.897,1.743-3.897,3.897c0,30.552-13.613,57.967-35.069,76.557v-13.326
				c0-12.401-10.609-22.493-23.649-22.493h-18.423l-6.826-14.499c15.468-1.624,26.005-4.61,26.602-4.782
				c2.03-0.586,3.221-2.687,2.687-4.73c-0.082-0.316-8.274-31.823-8.274-47.192v-9.056c0-19.03-15.484-34.513-34.514-34.513h-11.583
				c-19.03,0-34.513,15.483-34.513,34.513v9.056c0,15.369-8.192,46.877-8.274,47.192c-0.535,2.043,0.657,4.144,2.687,4.73
				c0.6,0.173,11.246,3.19,26.853,4.809l-5.953,14.472H66.511c-13.041,0-23.649,10.091-23.649,22.493v13.326
				c-21.456-18.59-35.069-46.005-35.069-76.557c0-55.864,45.448-101.31,101.31-101.31c2.152,0,3.897-1.743,3.897-3.897
				S111.255,0,109.103,0C48.943,0,0,48.943,0,109.103c0,60.16,48.943,109.103,109.103,109.103
				c60.16,0,109.103-48.943,109.103-109.103C218.207,106.95,216.462,105.207,214.31,105.207z M67.075,123.993
				c2.239-9.098,7.568-32.142,7.568-45.354v-9.056c0-14.734,11.987-26.72,26.72-26.72h11.583c14.734,0,26.72,11.987,26.72,26.72
				v9.056c0,13.212,5.329,36.256,7.569,45.354c-6.712,1.572-21.992,4.593-40.08,4.593C89.067,128.586,73.787,125.565,67.075,123.993
				z M167.551,191.776c-16.528,11.72-36.69,18.638-58.448,18.638s-41.919-6.919-58.448-18.638v-19.441
				c0-8.105,7.114-14.7,15.856-14.7h18.261c1.579,0,3.002-0.955,3.604-2.412l7.894-19.187c3.478,0.21,7.107,0.344,10.885,0.344
				c3.821,0,7.487-0.136,11-0.351l9.12,19.369c0.643,1.366,2.017,2.237,3.526,2.237h20.894c8.743,0,15.856,6.595,15.856,14.7
				V191.776z"/>
			<path d="M188.983,57.113c0.388,0.026,0.774,0.042,1.166,0.042c8.02-0.004,16.519-5.578,21.551-14.293
				c3.271-5.666,4.735-11.975,4.125-17.763c-0.66-6.248-3.621-11.191-8.334-13.912c-5.415-3.124-12.185-2.755-18.509,0.902
				c-6.326-3.657-13.088-4.026-18.509-0.902c-4.713,2.721-7.673,7.664-8.334,13.912c-0.611,5.788,0.854,12.097,4.125,17.763
				C171.543,52.006,180.621,57.676,188.983,57.113z M169.892,25.918c0.39-3.706,1.981-6.537,4.479-7.98
				c3.341-1.929,7.953-1.202,12.336,1.952c1.358,0.982,3.192,0.982,4.551,0c4.382-3.155,8.992-3.885,12.336-1.952
				c2.498,1.442,4.089,4.273,4.479,7.98c0.44,4.163-0.67,8.798-3.124,13.048c-3.8,6.587-10.261,10.906-15.617,10.358
				c-0.118-0.011-0.234-0.015-0.35-0.015c-0.116,0-0.232,0.004-0.35,0.015c-5.358,0.556-11.815-3.771-15.617-10.358
				C170.562,34.715,169.452,30.08,169.892,25.918z"/>
		</g>
	</g>
</g>
<g>
</g>
<g>
</g>
<g>
</g>
<g>
</g>
<g>
</g>
<g>
</g>
<g>
</g>
<g>
</g>
<g>
</g>
<g>
</g>
<g>
</g>
<g>
</g>
<g>
</g>
<g>
</g>
<g>
</g>
</svg>
